Coordinates
version=1
nRows=26
nColumns=18
inDegrees=yes

Units are S.I. units (second, meters, Newtons, ...)
Angles are in degrees.

endheader
time	ground_thorax_rot_x	ground_thorax_rot_y	ground_thorax_rot_z	ground_thorax_tx	ground_thorax_ty	ground_thorax_tz	clav_prot	clav_elev	scapula_abduction	scapula_elevation	scapula_upward_rot	scapula_winging	plane_elv	shoulder_elv	axial_rot	elbow_flexion	pro_sup
      1.93000000	      0.65384943	     -6.35929440	     -9.42423139	     -0.00423131	      0.00403036	     -0.00078352	    -21.22892872	      0.97810778	      0.62935763	     -4.11398231	     31.30675753	     -0.75650734	     66.07277361	     42.29214979	    -16.18414192	      0.00000000	     34.32000000
      1.94000000	      0.56496397	     -6.41156708	     -9.47273751	     -0.00423131	      0.00403036	     -0.00078352	    -21.32233945	      1.26888902	      0.65034505	     -3.97214850	     31.66621864	     -0.90894054	     66.84171596	     43.39036652	    -16.25585534	      0.00000000	     34.32000000
      1.95000000	      0.89618785	     -6.23157936	     -9.43878659	     -0.00423131	      0.00403036	     -0.00078352	    -21.74064447	      2.03498892	      0.43897566	     -3.61526092	     32.66329794	     -1.30473466	     67.40515601	     44.04835879	    -16.98491049	      0.00000000	     34.32000000
      1.96000000	      0.81330748	     -6.30910218	     -9.48422333	     -0.00423131	      0.00403036	     -0.00078352	    -21.74410875	      2.08560716	      0.78437553	     -3.66253850	     33.14694040	     -1.42467585	     66.78846214	     44.62017658	    -16.60684879	      0.00000000	     34.32000000
      1.97000000	      0.71990992	     -6.56580819	     -9.60462302	     -0.00423131	      0.00403036	     -0.00078352	    -21.55318872	      1.94168512	      1.46679686	     -3.82415020	     33.54552970	     -1.48563871	     65.73047506	     44.98303068	    -15.86666852	      0.00000000	     34.32000000
      1.98000000	      0.67447276	     -6.81181220	     -9.67118564	     -0.00423131	      0.00403036	     -0.00078352	    -21.37742252	      1.92647230	      1.99206755	     -3.87189229	     33.82088488	     -1.55146227	     65.07759031	     45.40292828	    -15.27736301	      0.00000000	     34.32000000
      1.99000000	      0.93258155	     -6.98441110	     -9.60565360	     -0.00423131	      0.00403036	     -0.00078352	    -21.36289907	      2.50611560	      2.17726548	     -3.52323561	     34.24697857	     -1.78782590	     65.37676573	     46.02780503	    -15.69931326	      0.00000000	     34.32000000
      2.00000000	      0.79238542	     -7.07597252	     -9.66703723	     -0.00423131	      0.00403036	     -0.00078352	    -21.50802927	      2.68330643	      2.12144047	     -3.45805997	     34.57729113	     -1.89330762	     66.25520958	     46.88951571	    -15.68000896	      0.00000000	     34.32000000
      2.01000000	      0.54246169	     -7.20555594	     -9.67680774	     -0.00423131	      0.00403036	     -0.00078352	    -21.50307564	      2.73414854	      2.32712272	     -3.46595032	     34.85195714	     -1.96452508	     66.77284378	     47.64972932	    -15.70530593	      0.00000000	     34.32000000
      2.02000000	      0.79988619	     -7.30624500	     -9.73564033	     -0.00423131	      0.00403036	     -0.00078352	    -21.55204756	      3.15545554	      2.83354088	     -3.31383364	     35.77753137	     -2.25654275	     66.76845848	     48.11555098	    -15.56996544	      0.00000000	     34.32000000
      2.03000000	      0.51585249	     -7.29625736	     -9.78455610	     -0.00423131	      0.00403036	     -0.00078352	    -21.54319872	      2.98509550	      3.26092984	     -3.50875719	     36.24268172	     -2.31414849	     66.26860571	     48.40272091	    -14.61516576	      0.00000000	     34.32000000
      2.04000000	      0.46733200	     -7.30997958	     -9.90959733	     -0.00423131	      0.00403036	     -0.00078352	    -21.55741498	      3.08488403	      3.56151992	     -3.50784613	     36.69693157	     -2.43039361	     65.65317451	     48.91005085	    -14.00475584	      0.00000000	     34.32000000
      2.05000000	      0.08272247	     -7.33022210	     -9.72235333	     -0.00423131	      0.00403036	     -0.00078352	    -21.62395682	      3.15476981	      3.56669511	     -3.48925350	     36.88077067	     -2.48056269	     65.58219488	     49.26296133	    -13.99998188	      0.00000000	     34.32000000
      2.06000000	      0.86132446	     -8.09771320	     -9.97112382	     -0.00423131	      0.00403036	     -0.00078352	    -21.29251352	      3.98262199	      5.01922889	     -3.08487607	     38.27783695	     -2.96255890	     64.89742732	     50.11548676	    -15.12699402	      0.00000000	     34.32000000
      2.07000000	      0.65020239	     -8.15686280	     -9.86585511	     -0.00423131	      0.00403036	     -0.00078352	    -21.40868562	      3.93626062	      5.11859556	     -3.17737958	     38.64732638	     -3.01906983	     65.27687100	     50.66677283	    -15.15269301	      0.00000000	     34.32000000
      2.08000000	      0.70755936	     -8.10000873	     -9.94108490	     -0.00423131	      0.00403036	     -0.00078352	    -21.77503202	      4.21554014	      5.09959259	     -3.12369271	     39.54559501	     -3.23598534	     65.76455535	     51.16681606	    -14.95235543	      0.00000000	     34.32000000
      2.09000000	      0.75310647	     -8.03734234	     -9.93523374	     -0.00423131	      0.00403036	     -0.00078352	    -22.00782653	      4.63028932	      5.14487542	     -2.93939183	     40.27167563	     -3.45274126	     65.92139862	     51.67161098	    -14.75926478	      0.00000000	     34.32000000
      2.10000000	      0.55847038	     -7.92299619	     -9.98828512	     -0.00423131	      0.00403036	     -0.00078352	    -22.13526203	      4.83482408	      5.10457829	     -2.84175304	     40.57955770	     -3.54816724	     65.49637223	     52.31177784	    -14.74359711	      0.00000000	     34.32000000
      2.11000000	      0.44988364	     -7.76440685	    -10.04224446	     -0.00423131	      0.00403036	     -0.00078352	    -22.28966728	      4.95341084	      5.11176449	     -2.81764847	     40.97372576	     -3.64117392	     64.89414532	     52.72163190	    -13.99702053	      0.00000000	     34.32000000
      2.12000000	      0.35275875	     -7.67855172	    -10.08059138	     -0.00423131	      0.00403036	     -0.00078352	    -22.35427930	      4.95949051	      5.24679526	     -2.85707375	     41.28535253	     -3.69737980	     64.12549782	     53.14476110	    -13.20557304	      0.00000000	     34.32000000
      2.13000000	      0.22658636	     -7.69952930	    -10.12910342	     -0.00423131	      0.00403036	     -0.00078352	    -22.41401130	      4.88651669	      5.42269912	     -2.95317309	     41.60751376	     -3.73847351	     63.72029221	     53.70398030	    -12.68264038	      0.00000000	     34.32000000
      2.14000000	      0.46887684	     -7.89209602	    -10.23564825	     -0.00423131	      0.00403036	     -0.00078352	    -22.62752583	      5.18919087	      5.86774602	     -2.88840031	     42.73240330	     -3.99299264	     63.66778471	     54.28337171	    -13.11687121	      0.00000000	     34.32000000
      2.15000000	      0.25688340	     -8.16259149	    -10.14241955	     -0.00423131	      0.00403036	     -0.00078352	    -22.64157388	      5.28283895	      6.17217458	     -2.87424029	     43.16859274	     -4.08478376	     64.05551966	     55.21625674	    -13.17906533	      0.00000000	     34.32000000
      2.16000000	      0.73126581	     -8.56206504	    -10.10352785	     -0.00423131	      0.00403036	     -0.00078352	    -22.79118164	      6.22061148	      6.68845448	     -2.36593660	     44.45692780	     -4.47619413	     64.15801265	     55.94237948	    -13.69714780	      0.00000000	     34.32000000
      2.17000000	      0.36482848	     -8.51564964	    -10.19044068	     -0.00423131	      0.00403036	     -0.00078352	    -23.01020260	      6.12354376	      6.50177508	     -2.47060808	     44.67187488	     -4.49336275	     64.11519901	     56.80288578	    -13.35380342	      0.00000000	     34.32000000
      2.18000000	      0.33077599	     -8.37012349	    -10.12175123	     -0.00423131	      0.00403036	     -0.00078352	    -23.17629466	      6.25383802	      6.52738273	     -2.43524276	     45.10915845	     -4.58734025	     63.48072943	     57.21839294	    -13.40331498	      0.00000000	     34.32000000
